<svg width="24" height="24" xmlns="http://www.w3.org/2000/svg" class="mx-1">
  <path stroke="null" id="svg_2" fill="#0F0F0F" d="m0.200024,12c0,-2.172376 1.76095,-3.933325 3.933325,-3.933325l15.733301,0c2.172376,0 3.933325,1.76095 3.933325,3.933325c0,2.172376 -1.76095,3.933325 -3.933325,3.933325l-15.733301,0c-2.172376,0 -3.933325,-1.76095 -3.933325,-3.933325z"/>
  <path stroke="null" id="svg_3" fill="#0F0F0F" d="m10,1c-0.5523,0 -1,1.307282 -1,2.919995c0,1.612713 0.4477,2.919995 1,2.919995l4,0c0.5523,0 1,-1.307282 1,-2.919995c0,-1.612713 -0.4477,-2.919995 -1,-2.919995l-4,0z"/>
  <path stroke="null" id="svg_8" fill="#0F0F0F" d="m10,17.000001c-0.5523,0 -1,1.307281 -1,2.919995c0,1.612713 0.4477,2.919994 1,2.919994l4,0c0.5523,0 1,-1.307281 1,-2.919994c0,-1.612714 -0.4477,-2.919995 -1,-2.919995l-4,0z"/>
</svg>