<svg width="24" height="24" xmlns="http://www.w3.org/2000/svg" class="mx-1">
  <path stroke="null" id="svg_5" fill="#0F0F0F" d="m7.400394,1.379892c-1.665667,-1.665582 -4.366297,-1.665582 -6.031964,0c-1.665667,1.665582 -1.665667,4.36634 0,6.031922l4.584678,4.584721l-4.616838,4.61671c-1.665709,1.665582 -1.665709,4.36634 0,6.031922c1.665667,1.666008 4.366255,1.666008 6.031964,0l4.616881,-4.61671l4.646653,4.646567c1.665667,1.665582 4.366297,1.665582 6.031964,0c1.665709,-1.665582 1.665709,-4.36634 0,-6.031922l-4.646653,-4.646567l4.639359,-4.639316c1.665667,-1.665582 1.665667,-4.36634 0,-6.031922c-1.665709,-1.666008 -4.366297,-1.666008 -6.032007,0l-4.639316,4.639316l-4.584721,-4.584721z"/>
</svg>