<svg width="23.999999999999996" height="23.999999999999996" xmlns="http://www.w3.org/2000/svg" class="mx-1">
  <path stroke="null" id="svg_1" fill="#0F0F0F" d="m0.147541,12c0,-2.181998 1.768782,-3.95082 3.95082,-3.95082l3.95082,0l0,-3.95082c0,-2.181959 1.768782,-3.95082 3.95082,-3.95082c2.182038,0 3.95082,1.768861 3.95082,3.95082l0,3.95082l3.95082,0c2.182038,0 3.95082,1.768821 3.95082,3.95082c0,2.181998 -1.768782,3.95082 -3.95082,3.95082l-3.95082,0l0,3.95082c0,2.181959 -1.768782,3.95082 -3.95082,3.95082c-2.182038,0 -3.95082,-1.768861 -3.95082,-3.95082l0,-3.95082l-3.95082,0c-2.182038,0 -3.95082,-1.768821 -3.95082,-3.95082z"/>
</svg>